;<svg
  width="12"
  height="14"
  viewBox="0 0 12 14"
  fill="currentColor"
  xmlns="http://www.w3.org/2000/svg"
>
  <path
    fillRule="evenodd"
    clipRule="evenodd"
    d="M5.493 0.0243065C4.27784 0.204041 3.26235 0.932449 2.74473 1.99562C2.55838 2.37835 2.45393 2.76202 2.4085 3.23052C2.36749 3.6537 2.43495 4.17675 2.58664 4.61158C3.01246 5.83222 4.08212 6.72259 5.38392 6.94001C6.79332 7.17542 8.20757 6.5861 8.99498 5.43526C9.4211 4.81244 9.61858 4.12933 9.59139 3.37208C9.57114 2.80815 9.44348 2.33264 9.18521 1.85916C8.67006 0.914762 7.76518 0.265081 6.6689 0.0524786C6.38152 -0.00325923 5.77718 -0.0177366 5.493 0.0243065ZM2.5717 6.46139C1.80543 6.59627 1.19839 7.04102 0.773512 7.77882C0.260925 8.66894 -0.0314246 10.1144 0.00268884 11.5902C0.0116248 11.9767 0.0197555 12.0638 0.063771 12.2437C0.271289 13.0922 0.80191 13.7142 1.51666 13.9467L1.65754 13.9925L5.93431 13.998C9.80521 14.0029 10.225 14.0004 10.3582 13.9719C11.0372 13.8265 11.6109 13.2574 11.8675 12.4746C11.9803 12.1304 12.0023 11.9532 11.9998 11.4101C11.9954 10.4471 11.8804 9.57188 11.6606 8.82842C11.3431 7.75479 10.8121 7.024 10.0963 6.67572C9.79116 6.52721 9.39124 6.43103 9.0789 6.43103H8.92814L8.80428 6.54352C8.22411 7.07048 7.37848 7.44975 6.54762 7.55561C6.25648 7.59272 5.73029 7.59331 5.44855 7.55684C4.62465 7.45022 3.85558 7.1072 3.20633 6.55681L3.05799 6.43103L2.8911 6.43279C2.79931 6.43375 2.65559 6.44662 2.5717 6.46139Z"
    fill="currentColor"
  />
</svg>
